<?xml version="1.0" standalone="no"?>
<!DOCTYPE svg PUBLIC "-//W3C//DTD SVG 20010904//EN"
 "http://www.w3.org/TR/2001/REC-SVG-20010904/DTD/svg10.dtd">
<svg version="1.0" xmlns="http://www.w3.org/2000/svg"
 width="512.000000pt" height="512.000000pt" viewBox="0 0 512.000000 512.000000"
 preserveAspectRatio="xMidYMid meet">

<g transform="translate(0.000000,512.000000) scale(0.100000,-0.100000)"
fill="#000000" stroke="none">
<path d="M900 4360 l0 -150 -300 0 -300 0 0 -750 0 -750 300 0 300 0 0 -150 0
-150 -450 0 -450 0 0 -300 0 -300 2560 0 2560 0 0 300 0 300 -450 0 -450 0 0
150 0 150 300 0 300 0 0 750 0 750 -300 0 -300 0 0 150 0 150 -150 0 -150 0 0
-150 0 -150 -1360 0 -1360 0 0 150 0 150 -150 0 -150 0 0 -150z m3020 -1800
l0 -150 -1360 0 -1360 0 0 150 0 150 1360 0 1360 0 0 -150z"/>
<path d="M600 1060 l0 -450 279 0 279 0 150 450 150 450 -429 0 -429 0 0 -450z"/>
<path d="M3812 1060 l150 -450 279 0 279 0 0 450 0 450 -429 0 -429 0 150
-450z"/>
</g>
</svg>
