<?xml version="1.0" standalone="no"?>
<!DOCTYPE svg PUBLIC "-//W3C//DTD SVG 20010904//EN"
 "http://www.w3.org/TR/2001/REC-SVG-20010904/DTD/svg10.dtd">
<svg version="1.0" xmlns="http://www.w3.org/2000/svg"
 width="512.000000pt" height="512.000000pt" viewBox="0 0 512.000000 512.000000"
 preserveAspectRatio="xMidYMid meet">

<g transform="translate(0.000000,512.000000) scale(0.100000,-0.100000)"
fill="#000000" stroke="none">
<path d="M855 4917 c-116 -39 -199 -110 -246 -212 -89 -190 -12 -414 176 -510
155 -79 339 -44 460 87 178 192 116 499 -122 611 -54 25 -82 31 -148 34 -48 2
-96 -2 -120 -10z"/>
<path d="M3834 4896 c-116 -38 -216 -142 -251 -259 -23 -77 -14 -198 19 -269
113 -244 432 -302 621 -113 191 191 135 509 -111 623 -47 22 -73 27 -147 29
-54 1 -106 -3 -131 -11z"/>
<path d="M2330 4661 c-19 -10 -44 -34 -55 -52 -20 -34 -20 -52 -20 -2049 0
-1997 0 -2015 20 -2049 55 -93 188 -92 245 1 20 33 20 55 20 2048 0 1993 0
2015 -20 2048 -41 67 -121 90 -190 53z"/>
<path d="M383 4020 c-159 -23 -304 -151 -355 -313 -18 -59 -19 -98 -21 -817
l-2 -755 23 -33 c73 -101 193 -121 283 -45 67 57 63 12 69 816 5 764 4 746 45
747 35 0 35 5 35 -1639 0 -1546 1 -1618 19 -1656 82 -179 330 -179 412 0 18
38 19 89 19 968 l0 927 50 0 50 0 0 -927 c0 -879 1 -930 19 -968 80 -174 316
-180 409 -10 16 27 17 167 22 1659 5 1559 6 1629 23 1640 15 9 22 7 38 -13 20
-24 20 -35 13 -700 -7 -729 -6 -755 43 -819 76 -100 230 -92 304 16 l24 36 3
749 c2 652 0 758 -13 811 -43 167 -189 297 -365 325 -75 12 -1066 13 -1147 1z"/>
<path d="M3564 4010 c-141 -21 -265 -127 -336 -288 -29 -65 -437 -1230 -444
-1268 -15 -80 53 -182 137 -204 61 -17 132 3 178 49 32 33 52 82 201 500 90
255 166 459 167 454 2 -6 -46 -266 -107 -579 -156 -798 -153 -781 -146 -810 4
-14 18 -36 32 -49 23 -21 37 -25 118 -27 l91 -3 5 -715 c5 -786 2 -740 67
-802 81 -78 225 -78 306 0 65 62 62 16 67 802 l5 715 48 3 47 3 0 -694 c0
-768 -1 -752 64 -819 53 -54 97 -71 177 -66 87 5 140 39 181 117 l28 53 0 704
0 704 88 0 c97 0 121 10 147 61 15 28 9 65 -115 707 -72 372 -133 688 -136
702 -15 65 17 -19 165 -444 89 -252 170 -473 181 -490 21 -35 77 -70 127 -81
98 -20 212 77 213 183 0 42 -408 1212 -460 1319 -75 153 -186 242 -326 263
-79 11 -693 11 -770 0z"/>
</g>
</svg>
