<?xml version="1.0" standalone="no"?>
<!DOCTYPE svg PUBLIC "-//W3C//DTD SVG 20010904//EN"
 "http://www.w3.org/TR/2001/REC-SVG-20010904/DTD/svg10.dtd">
<svg version="1.0" xmlns="http://www.w3.org/2000/svg"
 width="512.000000pt" height="512.000000pt" viewBox="0 0 512.000000 512.000000"
 preserveAspectRatio="xMidYMid meet">

<g transform="translate(0.000000,512.000000) scale(0.100000,-0.100000)"
fill="#000000" stroke="none">
<path d="M2815 5114 c-197 -27 -321 -63 -466 -136 -150 -77 -283 -181 -395
-310 -38 -44 -43 -47 -115 -57 -186 -26 -347 -88 -509 -196 -262 -174 -445
-441 -522 -760 -19 -76 -22 -119 -22 -280 -1 -167 2 -202 23 -285 55 -221 139
-382 291 -560 44 -51 48 -61 59 -138 67 -467 469 -827 931 -835 58 -1 135 2
173 6 l67 8 0 -688 c0 -416 4 -702 10 -723 23 -84 128 -160 220 -160 92 0 197
76 220 160 6 21 10 349 10 842 l0 807 68 -30 c174 -80 297 -104 491 -96 276
10 489 104 687 301 142 142 223 283 277 480 30 110 32 383 3 491 -31 118 -74
219 -132 312 l-56 88 21 60 c181 530 -3 1117 -455 1452 -148 109 -336 192
-519 229 -70 14 -304 26 -360 18z"/>
</g>
</svg>
