<?xml version="1.0" standalone="no"?>
<!DOCTYPE svg PUBLIC "-//W3C//DTD SVG 20010904//EN"
 "http://www.w3.org/TR/2001/REC-SVG-20010904/DTD/svg10.dtd">
<svg version="1.0" xmlns="http://www.w3.org/2000/svg"
 width="87.000000pt" height="87.000000pt" viewBox="0 0 87.000000 87.000000"
 preserveAspectRatio="xMidYMid meet">

<rect x="10" y="10" width="80%" height="80%" fill="#d6eff8"/>
<g transform="translate(0.000000,87.000000) scale(0.100000,-0.100000)"
fill="#000000" stroke="none">
<path d="M125 854 c-45 -23 -85 -65 -106 -109 -17 -36 -19 -68 -19 -295 0
-281 4 -302 66 -364 62 -62 84 -66 360 -66 l250 0 53 26 c64 32 105 86 120
155 14 63 14 419 1 490 -13 67 -42 111 -99 149 l-44 30 -276 0 c-230 0 -281
-3 -306 -16z m370 -180 c40 -68 54 -99 46 -107 -7 -7 0 -29 25 -74 28 -50 34
-67 24 -77 -9 -11 -5 -26 14 -65 14 -28 26 -59 26 -71 0 -19 -6 -20 -85 -20
l-85 0 0 -45 c0 -45 0 -45 -35 -45 -35 0 -35 0 -35 45 l0 45 -79 0 c-44 0 -83
5 -86 10 -4 6 7 39 23 75 25 53 28 64 15 69 -12 5 -8 18 20 70 22 40 34 72 30
85 -3 12 4 36 18 58 61 101 90 143 98 143 5 0 34 -43 66 -96z"/>
</g>
</svg>
