<?xml version="1.0" standalone="no"?>
<!DOCTYPE svg PUBLIC "-//W3C//DTD SVG 20010904//EN"
 "http://www.w3.org/TR/2001/REC-SVG-20010904/DTD/svg10.dtd">
<svg version="1.0" xmlns="http://www.w3.org/2000/svg"
 width="186.000000pt" height="183.000000pt" viewBox="0 0 186.000000 183.000000"
 preserveAspectRatio="xMidYMid meet">

<rect x="20" y="20" width="80%" height="80%" fill="#d6eff8"/>
<g transform="translate(0.000000,183.000000) scale(0.100000,-0.100000)"
fill="#000000" stroke="none">
<path d="M461 1769 c-181 -36 -333 -196 -362 -380 -6 -41 -9 -239 -7 -515 4
-428 5 -452 25 -505 57 -152 168 -255 318 -294 90 -23 957 -22 1036 1 173 52
296 182 329 349 8 42 10 203 8 530 -3 464 -3 471 -26 527 -51 126 -150 222
-277 270 -59 23 -68 23 -530 25 -259 1 -490 -3 -514 -8z m1021 -486 c16 -14
18 -33 18 -166 0 -175 -5 -187 -77 -187 l-43 0 0 -60 0 -60 119 0 119 0 4 -61
c1 -33 1 -63 -1 -65 -2 -2 -31 -4 -63 -4 l-58 0 0 -120 0 -120 -60 0 -60 0 0
120 0 120 -425 0 -425 0 0 -120 0 -120 -65 0 -65 0 0 120 0 120 -60 0 -60 0 0
65 0 65 120 0 120 0 0 60 0 60 -40 0 c-27 0 -47 7 -60 20 -18 18 -20 33 -20
165 0 132 2 147 20 165 19 19 33 20 532 20 462 0 513 -2 530 -17z"/>
</g>
</svg>
