<?xml version="1.0" standalone="no"?>
<!DOCTYPE svg PUBLIC "-//W3C//DTD SVG 20010904//EN"
 "http://www.w3.org/TR/2001/REC-SVG-20010904/DTD/svg10.dtd">
<svg version="1.0" xmlns="http://www.w3.org/2000/svg"
 width="512.000000pt" height="512.000000pt" viewBox="0 0 512.000000 512.000000"
 preserveAspectRatio="xMidYMid meet">

<g transform="translate(0.000000,512.000000) scale(0.100000,-0.100000)"
fill="#000000" stroke="none">
<path d="M883 5096 l-28 -24 -3 -2451 -2 -2451 -396 0 -396 0 -29 -29 c-38
-38 -38 -74 0 -112 l29 -29 2502 0 2502 0 29 29 c38 38 38 74 0 112 l-29 29
-271 0 -271 0 0 1425 0 1426 -25 24 -24 25 -616 0 -615 0 0 998 c-1 768 -3
1001 -13 1013 -30 39 -20 39 -1186 39 l-1130 0 -28 -24z m2187 -1086 l0 -940
-439 0 -440 0 -28 -24 -28 -24 -3 -1426 -2 -1426 -85 0 -85 0 0 413 0 412 -24
50 c-28 60 -66 97 -126 124 -39 18 -66 21 -191 21 -136 0 -148 -2 -197 -26
-29 -14 -65 -42 -82 -62 -58 -71 -60 -86 -60 -529 l0 -403 -130 0 -130 0 0
2390 0 2390 1025 0 1025 0 0 -940z m1280 -2475 l0 -1365 -1025 0 -1025 0 0
1365 0 1365 1025 0 1025 0 0 -1365z m-2585 -540 l25 -24 0 -401 0 -400 -170 0
-170 0 0 390 c0 326 2 396 15 420 8 15 20 30 27 33 7 3 66 6 131 6 112 1 119
0 142 -24z"/>
<path d="M1334 4770 c-52 -21 -54 -34 -54 -328 0 -285 5 -320 45 -336 9 -3
145 -6 301 -6 l285 0 24 25 25 24 0 288 c-1 302 -1 307 -47 331 -26 14 -546
16 -579 2z m456 -330 l0 -170 -170 0 -170 0 0 170 0 170 170 0 170 0 0 -170z"/>
<path d="M2178 4764 c-44 -24 -50 -63 -46 -351 3 -261 3 -261 27 -287 l24 -26
292 0 292 0 24 26 c24 26 24 26 27 287 4 292 -1 328 -48 352 -42 22 -552 21
-592 -1z m470 -326 l2 -168 -175 0 -175 0 0 163 c0 90 3 167 7 171 4 3 81 5
172 4 l166 -3 3 -167z"/>
<path d="M1333 3916 c-17 -8 -36 -23 -42 -35 -7 -13 -11 -119 -11 -300 l0
-280 24 -28 24 -28 290 0 290 0 26 24 26 24 0 288 0 288 -24 28 -24 28 -274 2
c-217 2 -279 0 -305 -11z m457 -336 l0 -170 -170 0 -170 0 0 170 0 170 170 0
170 0 0 -170z"/>
<path d="M2210 3924 c-42 -15 -60 -30 -70 -57 -6 -18 -10 -133 -10 -284 0
-286 5 -312 60 -332 51 -17 531 -15 575 3 52 22 57 52 53 353 l-3 263 -28 27
-27 28 -268 2 c-147 1 -274 0 -282 -3z m438 -341 l-3 -168 -170 0 -170 0 -3
168 -2 167 175 0 175 0 -2 -167z"/>
<path d="M1319 3057 c-36 -28 -39 -51 -39 -332 l0 -277 29 -29 29 -29 285 0
284 0 27 26 26 27 0 289 0 289 -25 24 -24 25 -288 0 c-211 -1 -292 -4 -304
-13z m471 -327 l0 -170 -170 0 -170 0 0 170 0 170 170 0 170 0 0 -170z"/>
<path d="M1334 2210 c-52 -21 -54 -34 -54 -328 0 -285 5 -320 45 -336 9 -3
145 -6 301 -6 l285 0 24 25 25 24 0 288 c-1 302 -1 307 -47 331 -26 14 -546
16 -579 2z m456 -330 l0 -170 -170 0 -170 0 0 170 0 170 170 0 170 0 0 -170z"/>
<path d="M2589 2701 l-29 -29 0 -277 c0 -281 3 -304 39 -332 12 -9 93 -12 304
-13 l288 0 24 25 25 24 0 289 0 289 -26 27 -27 26 -284 0 -285 0 -29 -29z
m481 -311 l0 -170 -170 0 -170 0 0 170 0 170 170 0 170 0 0 -170z"/>
<path d="M3443 2706 l-28 -24 0 -292 0 -292 28 -24 28 -24 284 0 284 0 28 24
28 24 3 259 c2 142 0 273 -3 292 -3 18 -17 44 -30 57 l-24 24 -285 0 -285 0
-28 -24z m487 -316 l0 -170 -175 0 -175 0 0 170 0 170 175 0 175 0 0 -170z"/>
<path d="M2614 1870 c-52 -21 -54 -33 -54 -338 l0 -283 24 -24 c13 -13 39 -27
57 -30 19 -3 150 -5 292 -3 l259 3 24 28 24 28 0 288 0 288 -26 24 -26 24
-276 2 c-152 1 -287 -2 -298 -7z m456 -330 l0 -170 -170 0 -170 0 0 170 0 170
170 0 170 0 0 -170z"/>
<path d="M3464 1866 c-20 -9 -35 -25 -43 -46 -14 -43 -15 -525 -1 -567 20 -55
36 -58 341 -58 l279 0 27 28 28 27 3 263 c4 301 -1 331 -53 353 -48 20 -535
20 -581 0z m464 -328 l2 -168 -175 0 -175 0 0 163 c0 90 3 167 7 171 4 3 81 5
172 4 l166 -3 3 -167z"/>
<path d="M2602 1013 c-7 -3 -19 -18 -27 -33 -12 -24 -15 -81 -15 -304 l0 -275
24 -28 24 -28 274 -3 c150 -2 283 0 295 3 12 3 32 15 43 27 19 21 20 34 20
310 l0 289 -25 24 -24 25 -288 -1 c-158 0 -294 -3 -301 -6z m468 -333 l0 -170
-170 0 -170 0 0 170 0 170 170 0 170 0 0 -170z"/>
<path d="M3439 994 c-24 -26 -24 -26 -27 -287 -4 -292 1 -328 48 -352 43 -22
547 -22 590 0 47 24 52 60 48 352 -3 261 -3 261 -27 287 l-24 26 -292 0 -292
0 -24 -26z m489 -311 l-3 -168 -170 0 -170 0 -3 168 -2 167 175 0 175 0 -2
-167z"/>
</g>
</svg>
