<?xml version="1.0" standalone="no"?>
<!DOCTYPE svg PUBLIC "-//W3C//DTD SVG 20010904//EN"
 "http://www.w3.org/TR/2001/REC-SVG-20010904/DTD/svg10.dtd">
<svg version="1.0" xmlns="http://www.w3.org/2000/svg"
 width="186.000000pt" height="183.000000pt" viewBox="0 0 186.000000 183.000000"
 preserveAspectRatio="xMidYMid meet">

<rect x="25" y="25" width="70%" height="70%" fill="#d6eff8"/>
<g transform="translate(0.000000,183.000000) scale(0.100000,-0.100000)"
fill="#000000" stroke="none">
<path d="M465 1706 c-116 -28 -227 -110 -278 -205 -51 -93 -57 -149 -57 -583
0 -254 4 -416 11 -450 25 -120 109 -238 208 -291 93 -51 149 -57 583 -57 254
0 416 4 450 11 120 25 238 109 291 208 51 93 57 149 57 583 0 254 -4 416 -11
450 -25 120 -109 238 -208 291 -94 52 -148 57 -591 56 -283 0 -420 -4 -455
-13z m750 -526 l278 -255 -82 -3 -81 -3 0 -229 0 -230 -145 0 -145 0 0 175 0
175 -110 0 -110 0 0 -175 0 -175 -140 0 -140 0 0 230 0 230 -81 0 c-44 0 -79
4 -77 8 5 14 542 511 550 509 3 -1 131 -117 283 -257z"/>
</g>
</svg>
