<?xml version="1.0" standalone="no"?>
<!DOCTYPE svg PUBLIC "-//W3C//DTD SVG 20010904//EN"
 "http://www.w3.org/TR/2001/REC-SVG-20010904/DTD/svg10.dtd">
<svg version="1.0" xmlns="http://www.w3.org/2000/svg"
 width="186.000000pt" height="183.000000pt" viewBox="0 0 186.000000 183.000000"
 preserveAspectRatio="xMidYMid meet">

<rect x="15" y="15" width="80%" height="80%" fill="#d6eff8"/>
<g transform="translate(0.000000,183.000000) scale(0.100000,-0.100000)"
fill="#000000" stroke="none">
<path d="M441 1759 c-123 -24 -256 -120 -314 -227 -55 -100 -57 -126 -57 -622
0 -496 2 -520 58 -624 59 -110 181 -200 308 -226 34 -7 214 -10 525 -8 469 3
475 3 531 26 126 51 223 150 270 277 22 59 23 71 26 517 2 293 -1 478 -8 515
-34 188 -190 343 -375 373 -74 12 -903 11 -964 -1z m764 -300 c91 -55 101
-218 18 -277 -100 -71 -249 -9 -267 112 -6 39 -3 56 16 94 47 94 146 124 233
71z m-304 -194 c16 -9 34 -27 39 -41 6 -14 10 -116 10 -228 0 -147 3 -207 13
-219 7 -10 55 -50 107 -90 111 -84 121 -107 71 -157 -16 -17 -38 -30 -48 -30
-39 0 -271 153 -290 190 -7 14 -13 46 -13 73 0 26 -3 47 -6 47 -3 0 -74 -65
-157 -145 -159 -152 -171 -158 -231 -135 -34 12 -104 77 -122 111 -8 16 -14
48 -14 73 l0 44 260 249 c143 136 272 253 287 260 38 16 59 16 94 -2z m658
-91 l31 -26 0 -184 0 -184 -25 0 -25 0 -2 171 c-3 149 -5 173 -20 183 -11 7
-26 7 -45 0 -27 -9 -28 -12 -31 -87 -3 -74 -4 -78 -25 -75 -20 3 -22 9 -25 86
-3 80 -2 84 27 112 39 40 96 41 140 4z m36 -634 l0 -205 -71 -3 c-57 -2 -75 1
-91 15 -17 15 -261 301 -311 365 -28 35 -7 38 236 36 l237 -3 0 -205z"/>
</g>
</svg>
