<?xml version="1.0" standalone="no"?>
<!DOCTYPE svg PUBLIC "-//W3C//DTD SVG 20010904//EN"
 "http://www.w3.org/TR/2001/REC-SVG-20010904/DTD/svg10.dtd">
<svg version="1.0" xmlns="http://www.w3.org/2000/svg"
 width="186.000000pt" height="183.000000pt" viewBox="0 0 186.000000 183.000000"
 preserveAspectRatio="xMidYMid meet">

<rect x="20" y="20" width="80%" height="80%" fill="#d6eff8"/>
<g transform="translate(0.000000,183.000000) scale(0.100000,-0.100000)"
fill="#000000" stroke="none">
<path d="M445 1758 c-114 -21 -233 -102 -295 -198 -69 -107 -70 -118 -70 -649
0 -523 1 -531 61 -638 56 -98 177 -186 290 -212 59 -14 949 -14 1008 0 129 29
248 125 308 247 l38 76 3 495 c3 440 1 503 -14 559 -30 115 -119 223 -228 279
-95 48 -146 53 -616 52 -239 -1 -457 -6 -485 -11z m369 -307 c27 -14 65 -41
85 -60 l36 -36 43 42 c55 54 132 83 220 83 158 0 295 -125 310 -282 l5 -58
-62 0 -61 0 0 37 c0 49 -34 118 -74 147 -82 63 -188 54 -263 -20 -23 -24 -43
-47 -43 -51 0 -5 26 -7 59 -5 44 3 68 -1 99 -17 36 -18 92 -73 92 -89 0 -4
-23 -19 -50 -34 -47 -26 -50 -27 -59 -9 -6 10 -24 24 -41 31 -64 27 -120 -26
-120 -115 l0 -45 -55 0 -55 0 0 48 c0 110 -100 162 -158 81 -12 -18 -15 -17
-62 9 -27 15 -50 30 -50 34 0 16 56 71 92 89 31 16 55 20 99 17 33 -2 59 -1
59 2 0 15 -66 82 -93 97 -47 24 -133 22 -185 -5 -57 -30 -102 -100 -102 -159
l0 -43 -61 0 -62 0 6 54 c8 82 42 150 103 205 70 64 118 81 219 78 61 -2 92
-8 129 -26z m466 -601 l0 -60 -44 0 c-39 0 -45 -3 -56 -30 -13 -32 -68 -85
-106 -102 -22 -10 -24 -17 -24 -79 l0 -69 230 -2 230 -3 -45 -68 c-77 -114
-43 -107 -530 -107 -487 0 -453 -7 -530 107 l-45 68 230 3 230 2 -1 68 0 67
-47 30 c-26 17 -59 49 -75 73 -25 37 -32 42 -68 42 l-39 0 0 60 0 60 345 0
345 0 0 -60z"/>
</g>
</svg>
