<?xml version="1.0" standalone="no"?>
<!DOCTYPE svg PUBLIC "-//W3C//DTD SVG 20010904//EN"
 "http://www.w3.org/TR/2001/REC-SVG-20010904/DTD/svg10.dtd">
<svg version="1.0" xmlns="http://www.w3.org/2000/svg"
 width="512.000000pt" height="512.000000pt" viewBox="0 0 512.000000 512.000000"
 preserveAspectRatio="xMidYMid meet">

<g transform="translate(0.000000,512.000000) scale(0.100000,-0.100000)"
fill="#000000" stroke="none">
<path d="M1375 4943 c-153 -13 -302 -56 -438 -125 -134 -69 -163 -112 -116
-172 31 -39 70 -34 180 23 52 28 135 62 184 77 83 26 103 28 265 28 153 1 186
-2 259 -22 361 -99 636 -392 712 -757 10 -49 19 -121 19 -158 0 -59 3 -71 25
-92 33 -34 83 -34 115 0 20 21 24 40 31 132 26 348 230 650 544 803 166 81
229 95 435 95 211 -1 277 -16 445 -100 118 -59 150 -65 186 -36 29 23 31 81 4
110 -31 35 -234 129 -335 156 -397 105 -810 -2 -1101 -286 -90 -88 -152 -173
-214 -291 l-53 -100 -26 58 c-76 166 -246 363 -403 467 -154 102 -335 167
-523 187 -94 10 -116 10 -195 3z"/>
<path d="M820 4294 c-202 -25 -378 -78 -557 -165 -182 -89 -226 -141 -171
-203 37 -40 58 -40 129 -1 175 98 332 157 504 191 124 25 394 25 520 0 303
-60 549 -190 766 -406 156 -155 278 -343 343 -528 l14 -39 -66 34 c-161 81
-342 80 -509 -6 -71 -36 -94 -95 -53 -138 34 -37 57 -37 129 -4 91 42 163 54
242 42 128 -21 236 -101 291 -216 50 -106 137 -95 -753 -95 -564 0 -792 -3
-820 -12 -51 -15 -114 -69 -142 -122 -22 -40 -22 -49 -25 -463 l-3 -422 -242
-3 c-213 -3 -246 -5 -277 -22 -49 -26 -88 -64 -113 -111 -22 -40 -22 -45 -25
-707 l-3 -666 25 -29 24 -28 2512 0 2512 0 24 28 25 29 -3 666 c-3 629 -4 669
-22 702 -26 49 -64 88 -111 113 -37 21 -56 22 -282 25 l-242 3 -3 422 c-3 414
-3 423 -25 463 -28 53 -91 107 -142 122 -28 9 -265 12 -860 12 l-822 0 6 23
c58 195 244 318 436 288 34 -6 90 -24 125 -41 34 -16 70 -30 79 -30 21 0 75
54 75 75 0 39 -31 74 -92 104 -165 81 -354 76 -515 -14 l-44 -24 7 22 c17 53
77 183 113 245 237 406 648 672 1117 723 285 31 559 -25 841 -171 128 -66 137
-69 166 -57 42 18 60 61 42 103 -10 23 -35 44 -101 82 -153 87 -332 152 -519
189 -123 24 -432 24 -560 0 -352 -66 -645 -224 -891 -480 -146 -151 -252 -313
-329 -503 l-42 -104 -23 63 c-54 150 -163 333 -281 474 -231 275 -563 470
-925 544 -97 19 -388 34 -474 23z m3447 -1718 l28 -24 0 -154 0 -153 -1454 -3
-1455 -2 -23 -22 c-23 -21 -30 -59 -17 -93 18 -47 -32 -45 1509 -45 l1445 0 0
-170 0 -170 -1740 0 -1740 0 0 170 0 170 143 0 c155 0 183 8 205 52 10 23 10
33 -2 62 -18 44 -25 46 -201 49 l-140 2 0 153 0 154 28 24 28 24 1679 0 1679
0 28 -24z m669 -1029 c23 -27 24 -33 24 -203 l0 -174 -2282 0 c-1820 0 -2288
-3 -2308 -13 -38 -19 -55 -61 -40 -98 7 -16 18 -33 24 -37 6 -4 1044 -9 2306
-12 l2295 -5 3 -332 2 -333 -2400 0 -2400 0 0 588 c0 637 -1 620 54 642 11 5
1060 8 2359 7 l2339 -2 24 -28z"/>
</g>
</svg>
