<svg width="67" height="95" viewBox="0 0 67 95" fill="none" xmlns="http://www.w3.org/2000/svg">
<circle cx="33" cy="33" r="14" fill="#D6EFF8"/>
<path d="M33.25 45.125C30.1006 45.125 27.0801 43.8739 24.8531 41.6469C22.6261 39.4199 21.375 36.3994 21.375 33.25C21.375 30.1006 22.6261 27.0801 24.8531 24.8531C27.0801 22.6261 30.1006 21.375 33.25 21.375C36.3994 21.375 39.4199 22.6261 41.6469 24.8531C43.8739 27.0801 45.125 30.1006 45.125 33.25C45.125 34.8094 44.8178 36.3536 44.2211 37.7944C43.6243 39.2351 42.7496 40.5442 41.6469 41.6469C40.5442 42.7496 39.2351 43.6243 37.7944 44.2211C36.3536 44.8178 34.8094 45.125 33.25 45.125ZM33.25 0C24.4316 0 15.9743 3.50311 9.7387 9.7387C3.50311 15.9743 0 24.4316 0 33.25C0 58.1875 33.25 95 33.25 95C33.25 95 66.5 58.1875 66.5 33.25C66.5 24.4316 62.9969 15.9743 56.7613 9.7387C50.5257 3.50311 42.0684 0 33.25 0Z" fill="#1F3D47"/>
</svg>
