<?xml version="1.0" standalone="no"?>
<!DOCTYPE svg PUBLIC "-//W3C//DTD SVG 20010904//EN"
 "http://www.w3.org/TR/2001/REC-SVG-20010904/DTD/svg10.dtd">
<svg version="1.0" xmlns="http://www.w3.org/2000/svg"
 width="186.000000pt" height="183.000000pt" viewBox="0 0 186.000000 183.000000"
 preserveAspectRatio="xMidYMid meet">

<rect x="20" y="20" width="80%" height="80%" fill="#d6eff8"/>
<g transform="translate(0.000000,183.000000) scale(0.100000,-0.100000)"
fill="#000000" stroke="none">
<path d="M421 1774 c-166 -44 -300 -188 -331 -353 -14 -75 -13 -915 1 -983 37
-177 188 -327 362 -359 37 -6 226 -9 525 -7 463 3 468 3 525 27 119 47 229
157 274 271 16 40 18 96 21 529 2 313 -1 502 -8 533 -34 162 -167 302 -325
343 -85 22 -962 21 -1044 -1z m1026 -484 c68 -41 68 -40 71 -392 3 -298 2
-321 -17 -362 -14 -33 -30 -50 -60 -65 -39 -20 -55 -21 -496 -21 -493 0 -495
0 -545 55 l-25 27 -3 339 c-3 375 -2 381 61 419 31 19 53 20 507 20 453 0 476
-1 507 -20z"/>
<path d="M1165 1103 c-84 -21 -129 -79 -140 -179 -19 -164 52 -264 185 -264
78 1 160 66 160 128 0 19 -5 22 -38 22 -33 0 -39 -4 -49 -30 -23 -62 -117 -66
-154 -7 -17 27 -19 46 -17 119 3 74 6 90 26 111 44 47 109 41 140 -13 14 -25
23 -30 56 -30 38 0 38 0 32 32 -7 36 -38 73 -76 93 -30 15 -97 25 -125 18z"/>
<path d="M524 1048 c7 -29 30 -126 52 -215 l39 -163 37 0 36 0 32 138 c18 75
36 141 40 145 4 5 23 -56 41 -135 l34 -143 37 -3 c32 -3 38 0 43 20 3 13 25
106 50 208 25 102 45 188 45 193 0 4 -18 7 -39 7 -45 0 -41 10 -76 -190 -10
-52 -21 -101 -24 -108 -4 -7 -23 56 -42 140 l-34 153 -32 3 c-27 3 -33 -1 -38
-20 -3 -13 -18 -81 -34 -151 -16 -71 -32 -131 -34 -133 -2 -3 -17 64 -33 148
l-29 153 -42 3 -41 3 12 -53z"/>
</g>
</svg>
