<svg xmlns="http://www.w3.org/2000/svg" xmlns:xlink="http://www.w3.org/1999/xlink" version="1.1" width="1000" height="1000" viewBox="0 0 1000 1000" xml:space="preserve">
<desc>Created with Fabric.js 3.5.0</desc>
<defs>
</defs>
<rect x="20" y="20" width="80%" height="80%" fill="#d6eff8"/>
<g transform="matrix(0.5819 0 0 -0.5819 500.0292 500.0293)" id="120279">
<path style="stroke: none; stroke-width: 1; stroke-dasharray: none; stroke-linecap: butt; stroke-dashoffset: 0; stroke-linejoin: miter; stroke-miterlimit: 4; is-custom-font: none; font-file-url: none; fill: rgb(0,0,0); fill-rule: nonzero; opacity: 1;" vector-effect="non-scaling-stroke" transform=" translate(-934.5938, -909.8046)" d="M 445 1758 c -114 -21 -233 -102 -295 -198 c -69 -107 -70 -118 -70 -649 c 0 -523 1 -531 61 -638 c 56 -98 177 -186 290 -212 c 59 -14 949 -14 1008 0 c 129 29 248 125 308 247 l 38 76 l 3 495 c 3 440 1 503 -14 559 c -30 115 -119 223 -228 279 c -95 48 -146 53 -616 52 c -239 -1 -457 -6 -485 -11 z m 369 -307 c 27 -14 65 -41 85 -60 l 36 -36 l 43 42 c 55 54 132 83 220 83 c 158 0 295 -125 310 -282 l 5 -58 l -62 0 l -61 0 l 0 37 c 0 49 -34 118 -74 147 c -82 63 -188 54 -263 -20 c -23 -24 -43 -47 -43 -51 c 0 -5 26 -7 59 -5 c 44 3 68 -1 99 -17 c 36 -18 92 -73 92 -89 c 0 -4 -23 -19 -50 -34 c -47 -26 -50 -27 -59 -9 c -6 10 -24 24 -41 31 c -64 27 -120 -26 -120 -115 l 0 -45 l -55 0 l -55 0 l 0 48 c 0 110 -100 162 -158 81 c -12 -18 -15 -17 -62 9 c -27 15 -50 30 -50 34 c 0 16 56 71 92 89 c 31 16 55 20 99 17 c 33 -2 59 -1 59 2 c 0 15 -66 82 -93 97 c -47 24 -133 22 -185 -5 c -57 -30 -102 -100 -102 -159 l 0 -43 l -61 0 l -62 0 l 6 54 c 8 82 42 150 103 205 c 70 64 118 81 219 78 c 61 -2 92 -8 129 -26 z m 466 -601 l 0 -60 l -44 0 c -39 0 -45 -3 -56 -30 c -13 -32 -68 -85 -106 -102 c -22 -10 -24 -17 -24 -79 l 0 -69 l 230 -2 l 230 -3 l -45 -68 c -77 -114 -43 -107 -530 -107 c -487 0 -453 -7 -530 107 l -45 68 l 230 3 l 230 2 l -1 68 l 0 67 l -47 30 c -26 17 -59 49 -75 73 c -25 37 -32 42 -68 42 l -39 0 l 0 60 l 0 60 l 345 0 l 345 0 l 0 -60 z" stroke-linecap="round"/>
</g>
</svg>